<svg width="24" height="24" viewBox="0 0 24 24" fill="none" xmlns="http://www.w3.org/2000/svg">
<path d="M14.678 3.272C15.0014 2.94816 15.3855 2.69124 15.8082 2.51591C16.231 2.34059 16.6841 2.2503 17.1418 2.25021C17.5995 2.25011 18.0527 2.34022 18.4755 2.51537C18.8983 2.69053 19.2825 2.9473 19.606 3.271L20.733 4.398C21.386 5.05116 21.7528 5.93692 21.7528 6.8605C21.7528 7.78408 21.386 8.66984 20.733 9.323L9.33 20.729C9.00672 21.0527 8.62279 21.3095 8.20016 21.4847C7.77753 21.6599 7.3245 21.7501 6.867 21.75H3C2.80109 21.75 2.61032 21.671 2.46967 21.5303C2.32902 21.3897 2.25 21.1989 2.25 21V17.156C2.24993 16.699 2.33988 16.2464 2.51472 15.8241C2.68956 15.4019 2.94587 15.0182 3.269 14.695L14.678 3.272ZM18.545 4.332C18.3608 4.14762 18.1421 4.00135 17.9014 3.90155C17.6607 3.80175 17.4026 3.75039 17.142 3.75039C16.8814 3.75039 16.6233 3.80175 16.3826 3.90155C16.1419 4.00135 15.9232 4.14762 15.739 4.332L14.843 5.229L18.774 9.16L19.672 8.262C20.0438 7.89013 20.2526 7.38583 20.2526 6.86C20.2526 6.33417 20.0438 5.82987 19.672 5.458L18.545 4.332Z" fill="white"/>
</svg>
