<svg width="24" height="24" viewBox="0 0 24 24" fill="none" xmlns="http://www.w3.org/2000/svg">
<path d="M14.422 5.487C14.2859 5.34195 14.0978 5.25688 13.899 5.2505C13.7003 5.24412 13.5071 5.31696 13.362 5.453V11.25H4.5C4.30109 11.25 4.11032 11.329 3.96967 11.4697C3.82902 11.6103 3.75 11.8011 3.75 12C3.75 12.1989 3.82902 12.3897 3.96967 12.5303C4.11032 12.671 4.30109 12.75 4.5 12.75H13.362V18.547C13.5071 18.683 13.7003 18.7559 13.899 18.7495C14.0978 18.7431 14.2859 18.6581 14.422 18.513L20.047 12.513C20.1773 12.374 20.2499 12.1906 20.2499 12C20.2499 11.8094 20.1773 11.626 20.047 11.487L14.422 5.487Z" fill="#00E436"/>
</svg>
