<svg width="24" height="24" viewBox="0 0 24 24" fill="none" xmlns="http://www.w3.org/2000/svg">
<path d="M9.367 2.25C8.275 2.25 7.409 2.25 6.712 2.307C5.998 2.365 5.395 2.487 4.844 2.767C3.94999 3.22267 3.22324 3.94977 2.768 4.844C2.487 5.394 2.365 5.998 2.307 6.712C2.25 7.409 2.25 8.275 2.25 9.367V14.633C2.25 15.725 2.25 16.591 2.307 17.288C2.365 18.002 2.487 18.605 2.767 19.157C3.22284 20.0506 3.94992 20.777 4.844 21.232C5.394 21.513 5.998 21.635 6.712 21.693C7.409 21.75 8.275 21.75 9.367 21.75H14.633C15.725 21.75 16.591 21.75 17.288 21.693C18.002 21.635 18.605 21.513 19.157 21.233C20.0505 20.7774 20.7768 20.0507 21.232 19.157C21.513 18.605 21.635 18.002 21.693 17.288C21.75 16.591 21.75 15.725 21.75 14.633V9.367C21.75 8.275 21.75 7.409 21.693 6.712C21.635 5.998 21.513 5.395 21.233 4.844C20.7776 3.95014 20.0509 3.22341 19.157 2.768C18.605 2.487 18.002 2.365 17.288 2.307C16.591 2.25 15.725 2.25 14.633 2.25H9.367ZM10 8.25C10.1989 8.25 10.3897 8.32902 10.5303 8.46967C10.671 8.61032 10.75 8.80109 10.75 9V15C10.75 15.1989 10.671 15.3897 10.5303 15.5303C10.3897 15.671 10.1989 15.75 10 15.75C9.80109 15.75 9.61032 15.671 9.46967 15.5303C9.32902 15.3897 9.25 15.1989 9.25 15V9C9.25 8.80109 9.32902 8.61032 9.46967 8.46967C9.61032 8.32902 9.80109 8.25 10 8.25ZM14.75 9V15C14.75 15.1989 14.671 15.3897 14.5303 15.5303C14.3897 15.671 14.1989 15.75 14 15.75C13.8011 15.75 13.6103 15.671 13.4697 15.5303C13.329 15.3897 13.25 15.1989 13.25 15V9C13.25 8.80109 13.329 8.61032 13.4697 8.46967C13.6103 8.32902 13.8011 8.25 14 8.25C14.1989 8.25 14.3897 8.32902 14.5303 8.46967C14.671 8.61032 14.75 8.80109 14.75 9Z" fill="white"/>
</svg>
