<svg width="24" height="24" viewBox="0 0 24 24" fill="none" xmlns="http://www.w3.org/2000/svg">
<path d="M9.367 2.25H14.633C15.725 2.25 16.591 2.25 17.288 2.307C18.002 2.365 18.605 2.487 19.157 2.767C20.0506 3.22284 20.777 3.94992 21.232 4.844C21.513 5.394 21.635 5.998 21.693 6.712C21.75 7.409 21.75 8.275 21.75 9.367V14.633C21.75 15.725 21.75 16.591 21.693 17.288C21.635 18.002 21.513 18.605 21.233 19.157C20.7774 20.0505 20.0507 20.7768 19.157 21.232C18.605 21.513 18.002 21.635 17.288 21.693C16.591 21.75 15.725 21.75 14.633 21.75H9.367C8.275 21.75 7.409 21.75 6.712 21.693C5.998 21.635 5.395 21.513 4.844 21.233C3.95014 20.7776 3.22341 20.0509 2.768 19.157C2.487 18.605 2.365 18.002 2.307 17.288C2.25 16.591 2.25 15.725 2.25 14.633V9.367C2.25 8.275 2.25 7.409 2.307 6.712C2.365 5.998 2.487 5.395 2.767 4.844C3.22267 3.94999 3.94977 3.22324 4.844 2.768C5.394 2.487 5.998 2.365 6.712 2.307C7.409 2.25 8.275 2.25 9.367 2.25ZM12.555 9.309C12.263 9.131 11.955 8.943 11.675 8.843C11.4883 8.77151 11.2885 8.74082 11.089 8.753C10.8597 8.77078 10.6403 8.85409 10.457 8.993C10.089 9.271 9.953 9.665 9.888 10.003C9.827 10.317 9.804 10.714 9.779 11.147L9.776 11.193C9.761 11.469 9.75 11.746 9.75 12C9.75 12.254 9.76 12.531 9.776 12.807L9.779 12.853C9.804 13.286 9.827 13.683 9.888 13.998C9.953 14.335 10.088 14.729 10.458 15.006C10.638 15.142 10.85 15.229 11.088 15.246C11.313 15.263 11.514 15.215 11.676 15.156C11.954 15.056 12.263 14.869 12.555 14.691L12.603 14.661C12.9934 14.4265 13.3655 14.1628 13.716 13.872L13.756 13.839C14.057 13.594 14.355 13.351 14.567 13.104C14.821 12.809 15 12.456 15 12C15 11.544 14.82 11.191 14.567 10.896C14.355 10.649 14.057 10.406 13.757 10.161L13.717 10.128C13.5285 9.97261 13.3344 9.82417 13.135 9.683C12.9614 9.5624 12.7839 9.44735 12.603 9.338L12.555 9.309Z" fill="white"/>
</svg>
